<?xml version="1.0" encoding="UTF-8" standalone="no"?>
<svg
   xmlns:dc="http://purl.org/dc/elements/1.1/"
   xmlns:cc="http://creativecommons.org/ns#"
   xmlns:rdf="http://www.w3.org/1999/02/22-rdf-syntax-ns#"
   xmlns:svg="http://www.w3.org/2000/svg"
   xmlns="http://www.w3.org/2000/svg"
   xmlns:sodipodi="http://sodipodi.sourceforge.net/DTD/sodipodi-0.dtd"
   xmlns:inkscape="http://www.inkscape.org/namespaces/inkscape"
   inkscape:export-ydpi="3.4133334"
   inkscape:export-xdpi="3.4133334"
   inkscape:export-filename="/Users/jibarra/vagrant/www/moodle/blocks/reports/pix/experimental.png"
   id="Capa_1"
   enable-background="new 0 0 511.992 511.992"
   height="450"
   viewBox="0 0 449.99297 449.99297"
   width="450"
   version="1.1"
   sodipodi:docname="experimental.svg"
   inkscape:version="1.0rc1 (09960d6, 2020-04-09)">
  <metadata
     id="metadata850">
    <rdf:RDF>
      <cc:Work
         rdf:about="">
        <dc:format>image/svg+xml</dc:format>
        <dc:type
           rdf:resource="http://purl.org/dc/dcmitype/StillImage" />
        <dc:title></dc:title>
      </cc:Work>
    </rdf:RDF>
  </metadata>
  <defs
     id="defs848" />
  <sodipodi:namedview
     inkscape:document-rotation="0"
     pagecolor="#ffffff"
     bordercolor="#666666"
     borderopacity="1"
     objecttolerance="10"
     gridtolerance="10"
     guidetolerance="10"
     inkscape:pageopacity="0"
     inkscape:pageshadow="2"
     inkscape:window-width="2078"
     inkscape:window-height="1065"
     id="namedview846"
     showgrid="false"
     inkscape:zoom="1.390625"
     inkscape:cx="215.73034"
     inkscape:cy="256"
     inkscape:window-x="0"
     inkscape:window-y="23"
     inkscape:window-maximized="0"
     inkscape:current-layer="Capa_1" />
  <g
     id="g865">
    <path
       style="fill:#999999;fill-opacity:1;stroke:#999999;stroke-width:0.999984;stroke-miterlimit:4;stroke-dasharray:none;stroke-opacity:1"
       d="M 274.16449,146.03398 V 90.252985 c 17.66899,-53.004 17.08699,-50.307 17.08699,-53.693 0,-15.337 -12.478,-27.8139992 -27.814,-27.8139992 h -76.883 c -15.336,0 -27.813,12.4769992 -27.813,27.8139992 0,3.383 -0.577,0.703 17.084,53.687 v 55.787995 c -60.909,20.798 -102.509995,78.229 -102.509995,143.531 0,83.637 68.043995,151.681 151.680995,151.681 83.637,0 151.68101,-68.043 151.68101,-151.681 -0.002,-65.304 -41.604,-122.735 -102.513,-143.532 z m -79.60001,25.679 c 7.015,-1.806 11.589,-8.286 11.246,-15.249 0.002,-0.094 0.014,-0.185 0.014,-0.279 0,-74.241995 0.296,-69.822995 -0.739,-73.005995 -0.263,-0.818 -1.145,-3.454 -14.805,-44.434 h 69.43101 c -15.74701,47.237 -15.299,45.236 -15.493,47.999 -0.093,1.275 -0.055,69.002995 -0.038,69.757995 -0.324,6.949 4.243,13.408 11.246,15.21 63.68201,16.391 102.36501,80.256 88.436,143.892 h -112.129 c 2.965,-28.53 -19.483,-53.169 -47.893,-53.169 -28.452,0 -50.855,24.681 -47.894,53.169 h -29.817 c -13.901995,-63.51 24.638,-127.47 88.435,-143.891 z m -28.879,138.878 c 0,-10.011 8.145,-18.155 18.155,-18.155 10.01,0 18.154,8.144 18.154,18.155 0,10.011 -8.144,18.155 -18.154,18.155 -10.01,0 -18.155,-8.144 -18.155,-18.155 z m 59.31,100.655 c -46.897,0 -87.677,-26.672 -107.983,-65.64 h 33.822 c 18.572,17.516 47.429,17.529 66.014,0 h 116.13101 c -20.307,38.968 -61.087,65.64 -107.98401,65.64 z"
       id="path833"
       inkscape:connector-curvature="0" />
    <path
       style="fill:#999999;fill-opacity:1;stroke-width:1.59755"
       d="m 280.73955,281.87506 c 14.0936,0 25.56083,-11.46723 25.56083,-25.56083 0,-14.09361 -11.46723,-25.56084 -25.56083,-25.56084 -14.0936,0 -25.56083,11.46723 -25.56083,25.56084 0,14.0936 11.46723,25.56083 25.56083,25.56083 z"
       id="path835"
       inkscape:connector-curvature="0" />
    <path
       style="fill:#999999;fill-opacity:1;stroke-width:1.59755"
       d="m 184.29025,207.87772 c 2.62957,12.67179 14.62878,21.35927 28.18082,18.81917 12.99289,-2.70626 21.29537,-14.95469 18.81916,-28.18082 -2.97145,-14.32046 -17.2935,-22.25231 -30.44934,-18.24405 -12.32033,3.92359 -18.78242,15.68637 -16.55064,27.6057 z"
       id="path837"
       inkscape:connector-curvature="0" />
  </g>
  <style
     id="style3055">.s0{fill:none;stroke-dasharray:2;stroke:#999;}</style>
</svg>
